<?xml version="1.0" standalone="no"?>
<!DOCTYPE svg PUBLIC "-//W3C//DTD SVG 20010904//EN"
 "http://www.w3.org/TR/2001/REC-SVG-20010904/DTD/svg10.dtd">
<svg version="1.0" xmlns="http://www.w3.org/2000/svg"
 width="1024.000000pt" height="1024.000000pt" viewBox="0 0 1024.000000 1024.000000"
 preserveAspectRatio="xMidYMid meet">

<g transform="translate(0.000000,1024.000000) scale(0.100000,-0.100000)"
fill="#000000" stroke="none">
<path d="M5835 9933 c11 -28 52 -174 60 -213 4 -19 20 -75 36 -124 16 -49 29
-97 29 -107 0 -37 -47 -18 -156 63 -28 21 -54 38 -58 38 -4 0 -49 29 -101 65
-96 67 -120 77 -111 48 3 -10 10 -40 17 -68 6 -27 22 -87 36 -133 14 -45 23
-88 20 -95 -3 -8 -31 -19 -62 -26 -172 -39 -348 -148 -465 -288 -129 -155
-199 -337 -217 -561 -6 -89 -10 -95 -78 -131 -52 -27 -53 -25 -89 126 -29 123
-52 210 -67 253 -4 14 -33 122 -63 240 -71 275 -81 306 -97 302 -8 -2 -66 -27
-129 -56 -63 -30 -135 -61 -160 -69 -25 -9 -85 -34 -135 -57 -49 -23 -104 -48
-122 -56 -17 -8 -34 -14 -37 -14 -3 0 -52 -21 -108 -46 -57 -25 -152 -66 -213
-91 -60 -24 -120 -51 -132 -59 -12 -8 -30 -14 -40 -13 -10 0 -50 42 -93 96
-88 113 -121 132 -221 133 -178 0 -318 -108 -633 -490 -66 -80 -165 -190 -220
-245 l-101 -100 -160 -58 c-88 -31 -168 -57 -177 -57 -9 0 -20 -4 -23 -10 -3
-5 -14 -10 -24 -10 -9 0 -39 -11 -67 -24 -27 -12 -101 -40 -164 -61 -63 -21
-153 -52 -200 -70 -47 -18 -107 -41 -133 -50 -37 -14 -46 -22 -41 -34 3 -9 12
-44 19 -77 7 -34 21 -92 30 -130 9 -38 21 -91 26 -119 6 -27 24 -104 40 -171
29 -119 29 -121 13 -180 -9 -32 -19 -71 -21 -87 -3 -15 -9 -30 -14 -33 -5 -3
-9 -16 -9 -29 0 -12 -21 -81 -46 -151 -119 -331 -167 -514 -183 -695 -17 -178
-14 -974 3 -1079 25 -150 112 -365 185 -457 22 -29 41 -57 41 -63 0 -5 7 -10
15 -10 8 0 15 -4 15 -9 0 -4 27 -22 59 -40 53 -28 67 -31 149 -31 76 0 101 4
152 26 33 15 63 24 66 21 7 -6 66 -295 94 -457 32 -189 56 -294 68 -298 6 -2
32 6 58 17 86 38 85 39 82 -106 l-3 -128 -110 -22 c-60 -13 -125 -24 -143 -25
-40 -2 -48 -11 -62 -72 -6 -27 -25 -69 -43 -95 -31 -45 -32 -49 -35 -172 -6
-233 52 -333 210 -363 44 -8 38 11 78 -241 16 -104 37 -232 47 -284 14 -80 15
-137 9 -390 -3 -163 -11 -354 -16 -426 -5 -71 -9 -246 -10 -388 0 -210 3 -270
16 -315 40 -138 84 -183 239 -242 30 -12 122 -28 190 -35 33 -3 276 -10 540
-15 470 -9 584 -16 843 -55 53 -8 117 -19 142 -25 25 -5 74 -14 110 -19 36 -6
103 -17 150 -25 239 -42 319 -57 365 -67 28 -6 64 -12 80 -14 17 -2 45 -8 64
-14 18 -6 36 -10 40 -9 3 1 26 -2 51 -6 130 -20 374 -46 530 -55 80 -5 152
-11 160 -13 12 -2 15 10 14 72 -1 75 -18 345 -30 475 -4 39 -8 140 -9 225 -1
85 -7 229 -14 320 -6 91 -20 305 -31 475 -11 171 -24 369 -30 440 -13 163 -44
646 -80 1235 -6 85 -14 211 -20 280 -5 69 -11 163 -12 210 l-3 85 125 7 c69 4
202 14 295 22 94 8 217 18 274 21 l104 7 -7 -84 c-7 -98 -26 -346 -35 -473
l-6 -90 -55 -7 c-128 -15 -181 -45 -216 -121 -71 -157 -21 -380 113 -497 47
-42 169 -100 208 -100 43 0 50 -8 64 -73 63 -287 364 -637 658 -765 139 -61
147 -62 507 -62 303 0 337 2 406 20 180 50 379 181 532 351 114 127 166 198
302 413 54 85 130 234 145 285 7 24 23 67 36 95 13 28 37 103 53 166 45 170
78 221 177 275 108 59 231 142 268 180 87 90 112 170 112 355 0 168 -25 252
-101 346 -50 62 -84 74 -211 74 -59 0 -115 5 -123 10 -12 7 -15 31 -15 112 1
124 21 176 87 226 48 36 104 70 131 78 9 4 17 10 17 15 0 5 8 9 18 9 10 0 22
4 28 9 5 5 27 19 49 31 22 12 72 46 110 75 39 28 92 64 119 79 26 15 75 45
108 66 33 22 62 40 65 40 4 0 38 30 77 68 131 125 207 244 236 372 7 30 17 65
23 78 16 33 1 50 -68 79 -64 27 -135 32 -203 14 -20 -5 -59 -15 -87 -22 -85
-20 -248 -81 -290 -109 -22 -15 -64 -43 -93 -62 -125 -84 -267 -236 -365 -392
-29 -45 -58 -91 -64 -102 -7 -10 -36 -64 -64 -119 -28 -55 -57 -106 -64 -114
-12 -13 -53 5 -292 124 -152 77 -292 150 -310 162 -19 13 -40 23 -47 23 -7 0
-25 9 -39 20 -24 19 -40 20 -485 20 l-460 0 -49 -38 c-26 -21 -82 -61 -123
-88 -272 -184 -308 -212 -421 -324 -124 -123 -173 -200 -229 -360 -13 -36 -26
-68 -30 -73 -3 -4 -53 8 -111 27 -57 18 -151 48 -209 65 -105 33 -424 133
-553 173 -38 12 -72 29 -77 38 -5 9 -15 52 -24 95 -8 44 -19 93 -25 108 l-11
27 -272 1 c-234 0 -268 2 -238 13 19 7 64 19 100 25 l65 13 50 121 49 122 13
295 c6 162 17 385 23 495 6 110 15 319 20 465 6 146 17 411 25 590 8 179 15
358 15 398 0 39 4 72 9 72 14 0 104 -149 153 -250 89 -186 158 -318 198 -380
65 -98 180 -237 251 -305 221 -210 677 -437 952 -474 102 -14 333 -14 416 0
169 29 347 117 468 232 69 67 89 93 133 180 38 75 56 128 70 200 21 104 51
186 78 210 10 8 55 30 102 48 47 18 98 42 113 53 41 30 74 92 84 156 12 78 8
498 -6 539 -17 54 -61 110 -106 137 -38 22 -53 24 -158 24 -131 0 -129 -1
-142 80 -37 225 -220 574 -450 862 -206 258 -598 633 -691 662 -11 3 -91 77
-176 164 -227 228 -395 392 -403 392 -4 0 -4 -8 0 -17z m370 -728 c108 -32
201 -74 325 -150 185 -112 437 -307 498 -383 84 -108 172 -294 331 -702 29
-74 78 -186 108 -248 l56 -113 -6 -282 c-6 -273 -18 -407 -52 -568 -38 -187
-108 -335 -200 -425 -77 -75 -138 -110 -238 -136 -72 -18 -102 -19 -350 -15
-235 4 -282 7 -346 25 -381 107 -784 439 -1046 862 -62 101 -145 261 -170 331
-93 252 -107 322 -114 604 -12 458 9 617 109 815 46 92 133 203 204 263 69 57
197 121 271 135 28 5 159 10 291 11 231 1 246 0 329 -24z m-1398 -1050 c6 -60
16 -164 22 -230 6 -66 14 -135 17 -152 6 -42 -6 -42 -90 -3 -168 80 -247 226
-198 367 11 32 23 75 27 96 l7 38 102 -3 101 -3 12 -110z m-1477 -213 c127
-38 233 -102 341 -206 83 -81 134 -157 176 -262 27 -68 27 -74 31 -324 4 -273
-2 -336 -45 -505 -149 -576 -629 -1171 -1071 -1329 l-87 -31 -320 0 -320 0
-63 34 c-77 42 -167 136 -219 228 -48 86 -97 233 -118 354 -19 108 -21 359 -4
473 58 385 292 826 606 1141 237 239 475 389 698 441 87 20 309 12 395 -14z
m4425 -411 l150 -78 3 -120 c3 -154 -15 -210 -89 -277 -55 -50 -117 -74 -199
-78 -66 -4 -75 13 -35 61 l27 31 -4 242 c-3 217 -5 246 -22 271 -18 26 -18 27
0 26 11 0 87 -35 169 -78z m-335 -2796 c239 -167 332 -221 465 -266 97 -33
289 -34 415 -2 98 26 404 93 420 93 6 0 10 -63 10 -182 0 -488 -53 -1004 -132
-1283 -131 -468 -346 -759 -724 -985 -184 -109 -349 -158 -564 -167 -150 -6
-230 3 -364 42 -317 92 -585 323 -744 641 -22 44 -56 126 -75 184 -79 234 -90
383 -58 776 12 148 27 307 34 354 l12 85 85 7 c317 26 649 225 867 518 65 87
112 181 149 298 5 18 55 -9 204 -113z m1605 -568 l160 -82 0 -120 c0 -66 -6
-138 -13 -161 -29 -97 -144 -179 -265 -191 -64 -6 -67 -5 -67 16 0 12 9 29 20
38 19 17 20 30 20 271 0 207 -3 258 -15 282 -9 17 -12 30 -8 30 5 0 80 -37
168 -83z m-5703 -88 c57 -6 132 -19 168 -29 465 -128 881 -587 1061 -1169 81
-263 106 -484 83 -746 -30 -340 -152 -626 -362 -846 -168 -177 -356 -277 -581
-310 -99 -14 -307 -6 -392 15 -202 49 -427 168 -629 329 -100 80 -255 241
-323 336 -72 100 -196 349 -240 483 -75 225 -87 333 -87 802 l0 369 87 151
c179 311 243 394 372 487 100 71 222 114 363 127 136 13 362 14 480 1z m-1423
-670 c-23 -44 -66 -416 -50 -432 6 -6 11 -22 11 -35 0 -27 -14 -25 -88 11 -58
28 -97 75 -117 139 -16 48 -16 63 -3 153 l14 100 94 36 c52 19 106 40 120 46
31 13 35 10 19 -18z m4051 -85 c-6 -14 -10 -114 -10 -223 0 -164 3 -201 15
-211 21 -18 19 -50 -3 -50 -40 0 -124 33 -156 61 -47 41 -67 98 -73 210 -5 74
-3 98 8 108 23 21 203 129 216 130 9 1 10 -6 3 -25z m-1021 -1232 c34 -24 64
-49 67 -56 3 -7 -2 -57 -10 -110 -12 -80 -19 -105 -43 -135 -42 -51 -94 -75
-180 -79 -79 -5 -89 4 -54 42 14 16 22 56 36 174 9 84 16 178 15 210 -1 31 -2
60 -1 64 1 6 19 -5 170 -110z"/>
<path d="M5957 8580 c-36 -29 -51 -84 -31 -121 23 -45 58 -64 92 -50 32 13 62
58 62 91 0 31 -29 76 -57 89 -32 15 -36 14 -66 -9z"/>
<path d="M6275 8568 c-33 -19 -44 -41 -45 -86 0 -86 82 -123 135 -60 22 26 26
39 22 71 -9 69 -62 104 -112 75z"/>
<path d="M5202 8393 l3 -58 72 -3 72 -3 10 -52 c6 -29 22 -113 35 -187 102
-558 234 -882 441 -1082 71 -69 209 -141 303 -159 141 -27 322 7 449 83 162
97 305 297 376 523 44 139 51 209 51 545 l1 325 -122 3 c-68 1 -123 0 -123 -3
0 -3 20 -41 44 -83 24 -42 55 -111 68 -152 21 -68 23 -94 23 -265 0 -168 -3
-199 -23 -267 -59 -200 -166 -367 -296 -459 -100 -71 -132 -79 -326 -79 -164
0 -173 1 -223 26 -72 36 -193 164 -257 270 -138 228 -256 616 -275 905 l-7
105 48 25 c60 31 66 52 22 76 -27 15 -63 18 -201 21 l-168 4 3 -59z"/>
<path d="M2891 7421 c-25 -34 -27 -81 -6 -120 39 -77 145 -40 145 51 0 60 -31
98 -80 98 -31 0 -43 -6 -59 -29z"/>
<path d="M3481 7329 c-132 -78 -206 -133 -206 -153 0 -6 21 -11 49 -11 l50 0
13 -60 c27 -131 8 -352 -47 -549 -64 -226 -173 -413 -301 -518 -59 -48 -275
-173 -347 -200 -46 -18 -78 -22 -167 -23 -107 0 -112 1 -187 38 -117 57 -179
136 -207 265 -19 91 -14 159 20 265 18 53 29 100 26 104 -4 3 -24 -5 -44 -19
-47 -31 -132 -81 -155 -90 -10 -4 -18 -13 -18 -20 0 -44 104 -397 130 -444 34
-58 114 -135 169 -164 262 -132 680 7 950 315 140 159 232 366 276 620 15 83
38 492 29 506 -2 4 -1 21 2 38 5 22 19 39 53 60 93 60 91 58 79 91 -5 17 -15
30 -21 29 -7 0 -72 -36 -146 -80z"/>
<path d="M2350 7107 c-50 -25 -63 -90 -30 -144 39 -64 113 -52 139 23 12 35
12 44 -3 76 -9 19 -28 40 -42 47 -31 14 -33 14 -64 -2z"/>
<path d="M7367 4240 c-35 -28 -50 -80 -45 -156 11 -172 158 -138 158 37 0 59
-21 113 -48 128 -28 15 -35 14 -65 -9z"/>
<path d="M6977 4200 c-31 -36 -41 -81 -35 -156 4 -45 10 -61 36 -86 30 -30 31
-31 56 -14 47 31 61 63 61 147 0 63 -4 83 -21 106 -30 40 -65 41 -97 3z"/>
<path d="M7807 4213 c-4 -3 -7 -20 -7 -36 0 -23 17 -48 75 -112 l75 -83 0 -70
c0 -97 -27 -355 -50 -489 -36 -203 -87 -309 -178 -372 -31 -22 -106 -77 -167
-122 -145 -107 -192 -129 -276 -129 -80 0 -153 20 -239 67 -234 127 -440 373
-592 708 l-59 130 31 26 c16 14 30 33 30 43 0 19 -47 116 -56 116 -3 0 -28
-17 -54 -37 -27 -21 -73 -56 -104 -78 -31 -22 -56 -46 -56 -55 0 -8 21 -35 47
-60 59 -58 111 -138 213 -330 107 -201 173 -300 267 -400 56 -60 94 -91 144
-116 148 -74 276 -104 443 -104 200 0 286 38 447 199 124 123 195 239 255 415
35 101 51 199 69 417 10 118 24 220 35 261 28 93 26 105 -12 117 -18 5 -84 30
-147 55 -122 49 -124 50 -134 39z"/>
<path d="M2177 3424 c-3 -4 2 -23 13 -44 22 -43 64 -190 80 -275 5 -33 21
-177 35 -320 31 -326 57 -454 132 -645 49 -126 136 -243 295 -396 176 -170
367 -292 518 -330 89 -23 311 -15 425 15 162 43 319 135 432 254 95 100 131
151 261 367 79 132 127 200 167 239 31 29 55 57 53 62 -5 15 -290 349 -297
349 -4 0 -17 -11 -30 -23 l-22 -24 52 -151 51 -151 -37 -68 c-219 -394 -379
-605 -520 -681 l-50 -27 -290 0 c-332 0 -349 3 -469 89 -317 226 -570 896
-554 1466 l3 115 48 3 47 3 0 90 0 89 -168 0 c-93 0 -171 -3 -175 -6z"/>
<path d="M3228 3228 c-73 -57 -77 -213 -7 -262 64 -44 134 2 153 103 19 103
-79 211 -146 159z"/>
<path d="M3592 3040 c-74 -45 -85 -185 -20 -251 40 -40 81 -39 119 2 64 69 62
173 -6 237 -41 38 -49 39 -93 12z"/>
</g>
</svg>
